<?xml version="1.0" standalone="no"?>
<!DOCTYPE svg PUBLIC "-//W3C//DTD SVG 20010904//EN"
 "http://www.w3.org/TR/2001/REC-SVG-20010904/DTD/svg10.dtd">
<svg version="1.0" xmlns="http://www.w3.org/2000/svg"
 width="880.000000pt" height="880.000000pt" viewBox="0 0 880.000000 880.000000"
 preserveAspectRatio="xMidYMid meet">
<metadata>
Created by potrace 1.14, written by Peter Selinger 2001-2017
</metadata>
<g transform="translate(0.000000,880.000000) scale(0.100000,-0.100000)"
fill="#000000" stroke="none">
<path d="M4178 8794 c-3 -2 -29 -6 -59 -8 -30 -2 -54 -5 -54 -6 0 -1 -11 -3
-25 -5 -53 -6 -117 -17 -155 -27 -39 -10 -52 -13 -97 -23 -29 -6 -178 -54
-203 -65 -11 -5 -49 -21 -85 -36 -132 -53 -399 -204 -421 -237 -3 -5 -9 -8
-13 -8 -3 1 -12 -3 -19 -9 -6 -5 -50 -40 -97 -77 -187 -146 -346 -317 -507
-546 -29 -41 -53 -79 -53 -85 0 -6 -4 -12 -9 -14 -10 -3 -148 -255 -153 -278
-2 -8 -6 -17 -9 -20 -9 -9 -49 -99 -49 -113 0 -7 -4 -17 -8 -22 -12 -13 -57
-138 -54 -147 1 -5 -3 -8 -10 -8 -6 0 -9 -3 -5 -6 3 -3 1 -18 -5 -33 -5 -14
-12 -37 -14 -49 -3 -13 -11 -43 -19 -65 -8 -23 -15 -50 -15 -59 0 -10 -6 -19
-12 -19 -17 -2 -71 -5 -193 -13 -55 -3 -120 -8 -145 -11 -99 -10 -198 -18
-255 -21 -33 -1 -60 -3 -60 -4 0 -1 -25 -3 -55 -5 -30 -2 -80 -5 -110 -8 -30
-4 -91 -9 -135 -12 -44 -3 -93 -8 -110 -10 -16 -2 -66 -7 -110 -10 -104 -9
-165 -14 -217 -19 -24 -2 -70 -7 -103 -10 -78 -7 -137 -16 -150 -24 -5 -4 -15
-7 -22 -8 -6 -1 -22 -11 -34 -23 -13 -12 -28 -21 -33 -21 -18 -1 -76 -85 -97
-140 -34 -90 -29 -134 41 -380 12 -41 23 -82 25 -90 2 -8 11 -42 21 -75 19
-64 24 -82 28 -105 2 -8 6 -22 9 -30 4 -8 8 -24 10 -35 2 -11 6 -27 9 -35 9
-25 31 -104 33 -120 1 -8 5 -22 8 -30 5 -13 52 -187 62 -230 1 -8 21 -85 43
-170 23 -85 43 -166 46 -180 4 -23 7 -34 23 -80 3 -8 7 -28 10 -45 5 -41 9
-57 16 -75 4 -8 9 -26 11 -40 3 -14 7 -34 10 -45 12 -50 37 -161 40 -175 2 -8
6 -26 9 -40 4 -14 13 -54 21 -90 15 -61 19 -80 31 -147 3 -16 8 -39 12 -53 10
-40 11 -44 16 -73 3 -15 8 -35 11 -45 3 -9 8 -33 10 -52 2 -19 12 -68 20 -108
9 -40 18 -87 20 -105 3 -18 8 -43 11 -57 4 -14 8 -36 10 -50 1 -14 6 -41 9
-60 15 -80 26 -147 30 -175 3 -16 7 -41 9 -55 5 -23 11 -67 23 -170 2 -19 6
-46 9 -60 7 -39 18 -141 19 -182 0 -21 3 -38 6 -38 3 0 6 -21 7 -47 1 -44 5
-95 18 -228 6 -50 14 -163 20 -265 2 -30 6 -100 10 -155 3 -55 8 -138 10 -185
2 -47 6 -139 9 -205 15 -305 26 -729 30 -1192 3 -240 7 -327 16 -338 7 -8 10
-15 6 -15 -10 0 41 -92 66 -120 67 -74 153 -108 264 -105 43 2 93 5 109 8 17
3 53 8 80 12 28 3 61 8 75 10 14 2 50 7 80 10 30 3 73 7 95 10 67 8 107 13
165 19 78 9 130 16 170 21 19 3 60 8 90 10 30 3 71 7 90 9 19 2 62 7 95 10 33
3 80 8 105 11 25 3 68 7 95 10 28 3 75 8 105 11 30 3 78 7 105 9 28 2 75 6
105 9 30 4 84 8 119 11 35 2 89 7 120 9 154 14 312 25 441 31 36 2 128 7 205
11 232 13 1200 8 1200 -7 0 0 27 -2 60 -4 127 -6 361 -22 465 -31 36 -3 88 -8
115 -10 28 -2 77 -6 110 -9 33 -3 87 -7 120 -10 33 -2 78 -7 100 -11 22 -3 47
-6 55 -6 8 0 53 -5 100 -10 47 -5 110 -11 140 -14 30 -2 75 -7 100 -10 62 -7
105 -12 170 -19 30 -3 93 -11 140 -17 47 -5 101 -12 120 -13 19 -2 35 -4 35
-5 0 -1 18 -3 40 -5 116 -11 146 -15 172 -19 42 -8 135 -19 161 -20 12 0 22
-2 22 -5 0 -13 201 -13 218 -1 1 2 5 3 10 4 22 4 80 33 101 51 98 83 127 157
136 348 3 56 8 131 10 167 3 36 7 99 10 140 3 41 8 120 12 175 3 55 7 126 7
157 1 32 3 58 6 58 3 0 6 19 7 42 0 24 4 81 7 128 4 47 8 112 11 145 5 70 13
168 21 240 3 28 7 79 9 115 2 36 4 65 5 65 1 0 3 25 6 55 2 30 6 78 8 105 3
28 7 82 11 120 3 39 7 85 10 103 3 18 8 63 11 100 5 65 11 126 18 187 3 28 11
99 21 200 2 22 7 56 10 75 3 19 8 58 10 85 17 156 39 316 50 375 3 14 8 43 10
65 3 22 7 55 10 72 5 32 8 51 20 136 4 23 10 60 15 82 5 22 12 65 15 95 4 30
8 57 10 60 2 3 6 25 10 50 4 25 8 47 10 50 4 6 18 107 19 133 0 9 4 17 9 17 4
0 6 3 4 8 -3 4 3 50 14 102 10 52 21 109 23 125 3 17 7 39 9 50 3 11 7 36 11
55 3 19 8 44 10 55 7 31 68 338 72 360 2 11 6 31 9 45 4 14 8 36 11 50 2 14
13 66 24 115 10 50 21 101 24 115 3 14 7 36 10 50 22 100 29 138 32 155 1 11
3 21 4 23 2 1 3 5 4 10 3 10 15 73 21 102 3 14 11 52 19 85 9 33 18 76 21 95
3 19 11 53 16 74 6 22 12 49 14 60 1 12 5 28 8 36 3 8 8 29 11 45 6 35 12 63
26 126 6 26 13 53 14 60 2 8 6 25 9 39 4 14 9 39 12 55 4 17 9 44 13 60 3 17
6 59 6 95 -1 147 -120 283 -267 305 -51 7 -195 21 -307 29 -72 5 -176 15 -221
22 -20 2 -77 6 -128 9 -50 2 -95 6 -99 8 -4 2 -29 5 -57 6 -27 1 -66 4 -85 6
-19 2 -78 7 -130 10 -52 4 -113 8 -135 11 -77 8 -251 21 -381 28 -64 4 -70 8
-78 51 -4 19 -18 70 -32 113 -14 42 -27 82 -28 87 -2 6 -6 17 -9 25 -3 8 -17
44 -30 80 -56 150 -166 368 -256 505 -34 52 -123 177 -136 191 -5 6 -23 29
-40 50 -79 103 -246 269 -370 367 -110 88 -151 117 -165 117 -5 0 -10 4 -10 8
0 9 -196 126 -203 121 -3 -2 -13 3 -23 11 -29 23 -62 40 -79 40 -8 0 -15 4
-15 8 0 4 -17 14 -37 21 -21 7 -57 21 -80 32 -24 10 -49 19 -56 19 -8 0 -17 3
-21 8 -4 4 -11 7 -14 7 -7 0 -82 22 -112 33 -14 5 -24 8 -52 15 -13 4 -77 17
-111 23 -10 2 -26 5 -35 8 -9 3 -39 8 -67 11 -27 4 -66 9 -85 12 -45 6 -417
12 -422 7z m392 -649 c324 -58 580 -174 812 -367 69 -58 236 -218 226 -218 -3
0 12 -19 34 -42 21 -24 47 -55 56 -70 9 -16 20 -28 24 -28 4 0 8 -6 8 -13 0
-8 9 -22 20 -32 11 -10 20 -24 20 -32 0 -7 5 -13 10 -13 6 0 10 -4 10 -9 0 -5
17 -38 38 -72 54 -90 127 -245 122 -258 -1 -2 2 -7 7 -10 10 -7 33 -72 33 -92
0 -12 -11 -15 -47 -13 -27 1 -48 3 -48 4 0 1 -40 3 -90 5 -49 2 -139 6 -200 9
-120 7 -257 13 -494 21 -84 3 -157 8 -162 10 -4 3 -10 1 -14 -5 -4 -6 -13 -7
-23 -1 -10 5 -271 8 -607 6 -556 -3 -714 -6 -965 -19 -58 -3 -161 -9 -230 -12
-69 -3 -156 -8 -195 -10 -198 -11 -190 -12 -188 18 1 15 8 42 16 60 9 18 28
62 43 98 15 36 34 72 41 81 7 8 13 23 13 31 0 9 3 18 8 20 4 2 18 23 31 48 32
60 121 194 132 198 5 2 9 10 9 17 0 7 3 15 8 17 4 2 32 32 62 68 65 77 159
171 220 220 24 19 48 40 54 45 24 23 117 85 126 85 6 0 10 4 10 8 0 5 21 20
48 33 26 13 50 28 54 34 5 7 8 7 8 0 0 -7 3 -7 8 0 13 18 214 109 266 120 12
2 44 11 71 20 28 9 65 18 84 21 18 3 43 8 55 11 11 2 48 7 81 10 33 3 62 7 63
8 6 6 295 -3 332 -10z"/>
</g>
</svg>
