<svg width="24" height="25" viewBox="0 0 24 25" fill="none" xmlns="http://www.w3.org/2000/svg">
<path fill-rule="evenodd" clip-rule="evenodd" d="M5.64434 6.14434C5.23176 6.55692 4.99997 7.1165 4.99997 7.69997V8.69997C4.99964 9.28087 4.76957 9.83806 4.35997 10.25L3.65997 10.95C3.45437 11.1544 3.29121 11.3975 3.17988 11.6652C3.06855 11.9329 3.01123 12.22 3.01123 12.51C3.01123 12.7999 3.06855 13.087 3.17988 13.3547C3.29121 13.6225 3.45437 13.8655 3.65997 14.07L4.35997 14.77C4.76957 15.1819 4.99964 15.7391 4.99997 16.32V17.32C4.99997 17.9034 5.23176 18.463 5.64434 18.8756C6.05692 19.2882 6.6165 19.52 7.19997 19.52H8.19997C8.78087 19.5203 9.33806 19.7504 9.74997 20.16L10.45 20.86C10.6544 21.0656 10.8975 21.2287 11.1652 21.3401C11.4329 21.4514 11.72 21.5087 12.01 21.5087C12.2999 21.5087 12.587 21.4514 12.8547 21.3401C13.1225 21.2287 13.3655 21.0656 13.57 20.86L14.27 20.16C14.6819 19.7504 15.2391 19.5203 15.82 19.52H16.82C17.4034 19.52 17.963 19.2882 18.3756 18.8756C18.7882 18.463 19.02 17.9034 19.02 17.32V16.32C19.0203 15.7391 19.2504 15.1819 19.66 14.77L20.36 14.07C20.5656 13.8655 20.7287 13.6225 20.8401 13.3547C20.9514 13.087 21.0087 12.7999 21.0087 12.51C21.0087 12.22 20.9514 11.9329 20.8401 11.6652C20.7287 11.3975 20.5656 11.1544 20.36 10.95L19.66 10.25C19.2504 9.83806 19.0203 9.28087 19.02 8.69997V7.69997C19.02 7.1165 18.7882 6.55692 18.3756 6.14434C17.963 5.73176 17.4034 5.49997 16.82 5.49997H15.82C15.2391 5.49964 14.6819 5.26957 14.27 4.85997L13.57 4.15997C13.3655 3.95437 13.1225 3.79121 12.8547 3.67988C12.587 3.56855 12.2999 3.51123 12.01 3.51123C11.72 3.51123 11.4329 3.56855 11.1652 3.67988C10.8975 3.79121 10.6544 3.95437 10.45 4.15997L9.74997 4.85997C9.33806 5.26957 8.78087 5.49964 8.19997 5.49997H7.19997C6.6165 5.49997 6.05692 5.73176 5.64434 6.14434ZM15.7071 10.2071C16.0976 9.81655 16.0976 9.18339 15.7071 8.79286C15.3166 8.40234 14.6834 8.40234 14.2929 8.79286L8.29289 14.7929C7.90237 15.1834 7.90237 15.8166 8.29289 16.2071C8.68342 16.5976 9.31658 16.5976 9.70711 16.2071L15.7071 10.2071ZM9.5 11.5C10.3284 11.5 11 10.8284 11 9.99997C11 9.17154 10.3284 8.49997 9.5 8.49997C8.67157 8.49997 8 9.17154 8 9.99997C8 10.8284 8.67157 11.5 9.5 11.5ZM16 15C16 15.8284 15.3284 16.5 14.5 16.5C13.6716 16.5 13 15.8284 13 15C13 14.1715 13.6716 13.5 14.5 13.5C15.3284 13.5 16 14.1715 16 15Z" fill="#24BF0B"/>
</svg>
