<svg width="18" height="18" viewBox="0 0 18 18" fill="none" xmlns="http://www.w3.org/2000/svg">
<path d="M3 5.16667V3.02504C3.00008 2.72694 3.05827 2.43254 3.1704 2.16283C3.28253 1.89313 3.44585 1.65478 3.64869 1.46478C3.85154 1.27478 4.08892 1.13782 4.34389 1.06367C4.59886 0.989519 4.86514 0.980007 5.12373 1.03581L14.546 2.85691C14.9552 2.9452 15.3243 3.19243 15.5898 3.55595C15.8552 3.91946 16.0003 4.37647 16 4.84816L16 6" stroke="#24BF0B" stroke-width="2" stroke-linejoin="round"/>
<path d="M15.9231 6L2.07692 6C1.5216 6 1 6.48204 1 7.16667V15.8333C1 16.518 1.5216 17 2.07692 17H15.9231C16.4784 17 17 16.518 17 15.8333V7.16667C17 6.48204 16.4784 6 15.9231 6Z" stroke="#24BF0B" stroke-width="2" stroke-linejoin="round"/>
<path d="M4.5 11C4.79667 11 5.08668 10.912 5.33336 10.7472C5.58003 10.5824 5.77229 10.3481 5.88582 10.074C5.99935 9.79994 6.02906 9.49834 5.97118 9.20737C5.9133 8.91639 5.77044 8.64912 5.56066 8.43934C5.35088 8.22956 5.08361 8.0867 4.79263 8.02882C4.50166 7.97094 4.20006 8.00065 3.92597 8.11418C3.65188 8.22771 3.41762 8.41997 3.25279 8.66664C3.08797 8.91332 3 9.20333 3 9.5C3 9.89783 3.15803 10.2794 3.43934 10.5607C3.72064 10.842 4.10217 11 4.5 11Z" fill="#24BF0B"/>
</svg>
