<svg width="54" height="55" viewBox="0 0 54 55" fill="none" xmlns="http://www.w3.org/2000/svg">
<path d="M52.9381 15.5825C53.2075 14.4039 52.3919 13.2563 51.1883 13.1434C46.3532 12.6899 34.8059 11.6929 26.7268 11.6929C18.7307 11.6929 7.33739 12.6695 2.41652 13.1293C1.1611 13.2466 0.339584 14.4819 0.690098 15.6931C1.85535 19.7196 4.16839 28.135 5.01129 34.2437C5.80285 39.9803 5.91607 48.1624 5.9199 52.136C5.92109 53.3686 7.00939 54.3227 8.23136 54.1614C12.267 53.6288 20.7154 52.6183 26.7268 52.6183C32.8115 52.6183 41.393 53.6536 45.3679 54.1807C46.5378 54.3359 47.5984 53.4663 47.6685 52.2883C47.901 48.3778 48.4566 40.0664 49.2775 34.2437C50.1398 28.127 52.0253 19.5761 52.9381 15.5825Z" fill="#24BF0B"/>
<path d="M46.802 33.8946C47.6423 27.9345 49.4234 19.7702 50.375 15.5785C45.2477 15.1048 34.3716 14.1929 26.7268 14.1929C19.1691 14.1929 8.45253 15.0842 3.25406 15.5623C4.46208 19.7763 6.65594 27.8732 7.48782 33.9019C8.27148 39.5812 8.40564 47.4773 8.41882 51.6156C12.6284 51.0689 20.7832 50.1183 26.7268 50.1183C32.7489 50.1183 41.0426 51.0943 45.2031 51.6375C45.4515 47.5497 45.9995 39.5865 46.802 33.8946Z" stroke="white" stroke-width="5" stroke-linecap="round" stroke-linejoin="round"/>
<mask id="path-3-inside-1_202_1849" fill="white">
<path d="M11.6929 16.7042C11.6929 7.47932 18.424 0 26.7268 0C35.0295 0 41.7606 7.47932 41.7606 16.7042"/>
</mask>
<path d="M15.6929 16.7042C15.6929 18.9134 13.9021 20.7042 11.6929 20.7042C9.48381 20.7042 7.69295 18.9134 7.69295 16.7042H15.6929ZM45.7606 16.7042C45.7606 18.9134 43.9697 20.7042 41.7606 20.7042C39.5514 20.7042 37.7606 18.9134 37.7606 16.7042H45.7606ZM7.69295 16.7042C7.69295 5.67709 15.8288 -4 26.7268 -4V4C21.0192 4 15.6929 9.28155 15.6929 16.7042H7.69295ZM26.7268 -4C37.6247 -4 45.7606 5.67709 45.7606 16.7042H37.7606C37.7606 9.28155 32.4343 4 26.7268 4V-4Z" fill="white" mask="url(#path-3-inside-1_202_1849)"/>
<path d="M34.0432 29.5665C32.5487 29.5665 31.3372 28.3549 31.3372 26.8604C31.3372 25.3659 32.5487 24.1543 34.0432 24.1543C35.5378 24.1543 36.7493 25.3659 36.7493 26.8604C36.7493 28.3549 35.5378 29.5665 34.0432 29.5665Z" fill="white"/>
<path d="M35.0789 35.0789C35.0789 35.0789 32.5732 40.0901 27.562 40.0901C22.5507 40.0901 20.0451 35.0789 20.0451 35.0789" stroke="white" stroke-width="3" stroke-linecap="round" stroke-linejoin="round"/>
<path d="M19.0094 29.5665C17.5149 29.5665 16.3033 28.3549 16.3033 26.8604C16.3033 25.3659 17.5149 24.1543 19.0094 24.1543C20.504 24.1543 21.7155 25.3659 21.7155 26.8604C21.7155 28.3549 20.504 29.5665 19.0094 29.5665Z" fill="white"/>
</svg>
